<?xml version="1.0" encoding="UTF-8" standalone="no"?>
<!-- Created with Inkscape (http://www.inkscape.org/) -->

<svg
   xmlns:dc="http://purl.org/dc/elements/1.1/"
   xmlns:cc="http://creativecommons.org/ns#"
   xmlns:rdf="http://www.w3.org/1999/02/22-rdf-syntax-ns#"
   xmlns:svg="http://www.w3.org/2000/svg"
   xmlns="http://www.w3.org/2000/svg"
   xmlns:sodipodi="http://sodipodi.sourceforge.net/DTD/sodipodi-0.dtd"
   xmlns:inkscape="http://www.inkscape.org/namespaces/inkscape"
   width="400"
   height="400"
   id="svg5467"
   version="1.1"
   inkscape:version="0.48.5 r10040"
   sodipodi:docname="ge_beach_edge.svg"
   inkscape:export-filename="/home/lukas/git/sopra_impl/impl/de.tu_darmstadt.es.sopra.GUI/src/de/tu_darmstadt/es/sopra/GUI/res/ge_beach_edge.png"
   inkscape:export-xdpi="90"
   inkscape:export-ydpi="90">
  <defs
     id="defs5469" />
  <sodipodi:namedview
     id="base"
     pagecolor="#007800"
     bordercolor="#666666"
     borderopacity="1.0"
     inkscape:pageopacity="1"
     inkscape:pageshadow="2"
     inkscape:zoom="0.98994949"
     inkscape:cx="9.7208351"
     inkscape:cy="197.95559"
     inkscape:document-units="px"
     inkscape:current-layer="layer1"
     showgrid="true"
     inkscape:window-width="956"
     inkscape:window-height="1018"
     inkscape:window-x="0"
     inkscape:window-y="0"
     inkscape:window-maximized="0">
    <inkscape:grid
       type="xygrid"
       id="grid5475"
       empspacing="50"
       visible="true"
       enabled="true"
       snapvisiblegridlinesonly="true" />
  </sodipodi:namedview>
  <metadata
     id="metadata5472">
    <rdf:RDF>
      <cc:Work
         rdf:about="">
        <dc:format>image/svg+xml</dc:format>
        <dc:type
           rdf:resource="http://purl.org/dc/dcmitype/StillImage" />
        <dc:title></dc:title>
      </cc:Work>
    </rdf:RDF>
  </metadata>
  <g
     inkscape:label="Ebene 1"
     inkscape:groupmode="layer"
     id="layer1"
     transform="translate(0,-652.36218)">
    <path
       style="fill:#ffff78;stroke:#000000;stroke-width:1px;stroke-linecap:butt;stroke-linejoin:miter;stroke-opacity:1;fill-opacity:1"
       d="M 400,200 C 300,250 250,250 250,250 150,250 200,150 200,150 250,50 200,0 200,0 l 0,0 -50,0 c 50,100 0,150 0,150 l 0,0 c -50,100 50,150 50,150 100,50 200,-50 200,-50 z"
       id="path6137"
       inkscape:connector-curvature="0"
       transform="translate(0,652.36218)" />
    <path
       style="fill:none;stroke:#000000;stroke-width:1px;stroke-linecap:butt;stroke-linejoin:miter;stroke-opacity:1"
       d="M 400,250 400,400 0,400 0,0 150,0"
       id="path6141"
       inkscape:connector-curvature="0"
       transform="translate(0,652.36218)" />
    <path
       style="fill:#0078ff;stroke:#000000;stroke-width:1px;stroke-linecap:butt;stroke-linejoin:miter;stroke-opacity:1;fill-opacity:1"
       d="m 150,0 c 50,100 0,150 0,150 -50,100 50,150 50,150 100,50 200,-50 200,-50 0,150 0,150 0,150 L 0,400 0,0 z"
       id="path6145"
       inkscape:connector-curvature="0"
       transform="translate(0,652.36218)" />
  </g>
</svg>
